<?xml version="1.0" encoding="utf-8"?>
<!-- Generator: Adobe Illustrator 21.0.2, SVG Export Plug-In . SVG Version: 6.00 Build 0)  -->
<svg version="1.1" id="Layer_1" xmlns="http://www.w3.org/2000/svg" xmlns:xlink="http://www.w3.org/1999/xlink" x="0px" y="0px"
	 viewBox="0 0 60 60" style="enable-background:new 0 0 60 60;" xml:space="preserve">
<circle style="fill:#319BC2;" cx="30" cy="30" r="30"/>
<path style="fill:#FFFFFF;" d="M30,1.9c-15.5,0-28,12.5-28,28s12.5,28,28,28s28-12.5,28-28S45.5,1.9,30,1.9z M30,55.9
	c-14.4,0-26-11.6-26-26c0-14.4,11.6-26,26-26c14.4,0,26,11.6,26,26C56,44.3,44.4,55.9,30,55.9z"/>
<g>
	<polygon style="fill:#FFFFFF;" points="15.2,41.3 25.2,36.9 30,22.7 25.1,14.9 	"/>
	<polygon style="fill:#FFFFFF;" points="24.9,12.5 37.1,31.8 44.3,28.7 32.8,12.5 	"/>
	<polygon style="fill:#FFFFFF;" points="49.4,27.7 13.2,43.4 21,48.6 45.2,38.3 	"/>
</g>
</svg>
